<svg width="69" height="73" viewBox="0 0 69 73" fill="none" xmlns="http://www.w3.org/2000/svg">
<mask id="mask0_122_876" style="mask-type:alpha" maskUnits="userSpaceOnUse" x="0" y="0" width="69" height="73">
<rect width="69" height="72.033" fill="#D9D9D9"/>
</mask>
<g mask="url(#mask0_122_876)">
<path d="M28.0312 61.8167C25.7349 61.8167 23.7602 60.9865 22.1071 59.3261C20.454 57.6658 19.5445 55.6523 19.3786 53.2859C16.7432 52.8665 14.5501 51.6082 12.7993 49.5111C11.0485 47.414 10.1732 44.9552 10.1732 42.1347C10.1732 41.1499 10.2957 40.1768 10.5408 39.2154C10.7859 38.254 11.1536 37.3513 11.6438 36.5071C11.0615 35.626 10.6247 34.6727 10.3335 33.6474C10.0423 32.6222 9.89673 31.5456 9.89673 30.4178C9.89673 27.5385 10.8044 25.0487 12.6196 22.9483C14.435 20.8478 16.6824 19.6264 19.362 19.2839C19.3436 19.207 19.3344 19.13 19.3344 19.053V18.7933C19.4229 16.3768 20.3084 14.3336 21.991 12.6635C23.6736 10.9936 25.687 10.1586 28.0312 10.1586C29.3508 10.1586 30.5266 10.4279 31.5586 10.9666C32.5907 11.5053 33.5711 12.2672 34.5 13.2523C35.4178 12.2672 36.3908 11.5053 37.4192 10.9666C38.4476 10.4279 39.6307 10.1586 40.9687 10.1586C43.2868 10.1586 45.2817 10.9907 46.9534 12.6549C48.6251 14.3191 49.5052 16.3499 49.5937 18.7471V19.0069C49.5937 19.0838 49.5845 19.1608 49.5661 19.2378C52.2456 19.5802 54.5051 20.8048 56.3444 22.9115C58.1836 25.0182 59.1032 27.5203 59.1032 30.4178C59.1032 31.5456 58.953 32.6222 58.6526 33.6474C58.3522 34.6727 57.9109 35.626 57.3285 36.5071C57.8187 37.3498 58.191 38.2521 58.4453 39.2139C58.6996 40.1758 58.8268 41.1494 58.8268 42.1347C58.8268 45.0052 57.944 47.4813 56.1785 49.563C54.4129 51.6447 52.2033 52.8857 49.5494 53.2859C49.3836 55.6523 48.4861 57.6658 46.8569 59.3261C45.2278 60.9865 43.265 61.8167 40.9687 61.8167C39.6418 61.8167 38.4614 61.555 37.4275 61.0317C36.3936 60.5084 35.4178 59.7446 34.5 58.7403C33.5527 59.7446 32.5649 60.5084 31.5365 61.0317C30.5082 61.555 29.3397 61.8167 28.0312 61.8167ZM36.6561 19.1626V52.8126C36.6561 54.0732 37.0742 55.1387 37.9102 56.0091C38.7463 56.8795 39.7697 57.3147 40.9806 57.3147C42.1337 57.3147 43.1222 56.8664 43.9461 55.9698C44.7699 55.0733 45.2149 54.0286 45.2813 52.8357C44.0723 52.5702 42.9564 52.0902 41.9335 51.3956C40.9107 50.7011 40.027 49.8112 39.2824 48.7261C38.9138 48.199 38.7749 47.6378 38.8656 47.0427C38.9562 46.4476 39.2555 45.964 39.7634 45.5921C40.2684 45.2073 40.8094 45.0623 41.3865 45.1569C41.9636 45.2516 42.4325 45.564 42.7931 46.0942C43.3878 46.9972 44.1447 47.6885 45.0637 48.1682C45.9827 48.6479 46.9767 48.8878 48.0456 48.8878C49.848 48.8878 51.3767 48.2327 52.6318 46.9225C53.8868 45.6123 54.5144 44.0163 54.5144 42.1347C54.5144 41.7563 54.4794 41.3779 54.4093 40.9995C54.3393 40.6211 54.2287 40.2492 54.0776 39.8836C53.263 40.4608 52.3645 40.9033 51.3823 41.2111C50.4 41.519 49.3799 41.6729 48.322 41.6729C47.7111 41.6729 47.199 41.4571 46.7858 41.0255C46.3725 40.5938 46.1659 40.059 46.1659 39.4209C46.1659 38.7829 46.3725 38.2483 46.7858 37.8174C47.199 37.3864 47.7111 37.171 48.322 37.171C50.1245 37.171 51.6532 36.5158 52.9082 35.2056C54.1633 33.8954 54.7909 32.2995 54.7909 30.4178C54.7909 28.5661 54.1725 26.995 52.9359 25.7044C51.6993 24.4138 50.1982 23.7339 48.4327 23.6646C47.9424 24.5843 47.2965 25.3866 46.4948 26.0715C45.6931 26.7565 44.7984 27.299 43.8105 27.6992C43.2466 27.9224 42.6961 27.9038 42.159 27.6434C41.6219 27.383 41.2639 26.9553 41.0849 26.3602C40.9006 25.7714 40.9227 25.1933 41.1512 24.6257C41.3797 24.0582 41.7852 23.6782 42.3676 23.4858C43.2337 23.178 43.9359 22.6316 44.4741 21.8466C45.0122 21.0616 45.2813 20.1622 45.2813 19.1482C45.2813 17.8957 44.8643 16.8346 44.0302 15.965C43.1961 15.0953 42.1751 14.6605 40.9671 14.6605C39.7592 14.6605 38.7387 15.0957 37.9057 15.9661C37.0727 16.8366 36.6561 17.9021 36.6561 19.1626ZM32.3438 52.8126V19.1626C32.3438 17.9021 31.9268 16.8366 31.0927 15.9661C30.2586 15.0957 29.2376 14.6605 28.0296 14.6605C26.8217 14.6605 25.8012 15.0957 24.9682 15.9661C24.1352 16.8366 23.7186 17.9021 23.7186 19.1626C23.7186 20.1362 23.9803 21.0231 24.5037 21.8235C25.0272 22.6239 25.722 23.178 26.5882 23.4858C27.1521 23.6782 27.5649 24.0534 27.8266 24.6113C28.0883 25.1692 28.1286 25.7447 27.9474 26.3376C27.7301 26.9304 27.3497 27.3566 26.8063 27.616C26.2628 27.8754 25.6999 27.8935 25.1176 27.6703C24.1297 27.2702 23.235 26.7324 22.4333 26.0571C21.6316 25.3818 20.9857 24.5843 20.4954 23.6646C18.7778 23.7339 17.3007 24.4237 16.064 25.7339C14.8274 27.0441 14.2091 28.6085 14.2091 30.4271C14.2091 32.3026 14.8366 33.8954 16.0917 35.2056C17.3467 36.5158 18.8755 37.171 20.6779 37.171C21.2888 37.171 21.8009 37.3868 22.2142 37.8184C22.6274 38.25 22.8341 38.7849 22.8341 39.4229C22.8341 40.061 22.6274 40.5955 22.2142 41.0265C21.8009 41.4574 21.2888 41.6729 20.6779 41.6729C19.6201 41.6729 18.6 41.519 17.6177 41.2111C16.6354 40.9033 15.737 40.4608 14.9224 39.8836C14.7712 40.2492 14.6607 40.6211 14.5906 40.9995C14.5206 41.3779 14.4856 41.7563 14.4856 42.1347C14.4856 44.0163 15.1131 45.6123 16.3681 46.9225C17.6232 48.2327 19.152 48.8878 20.9543 48.8878C22.0287 48.8878 23.0225 48.6463 23.9358 48.1634C24.849 47.6805 25.606 46.9908 26.2068 46.0942C26.5675 45.564 27.0364 45.2516 27.6135 45.1569C28.1905 45.0623 28.7316 45.2025 29.2366 45.5777C29.7415 45.9528 30.0401 46.4396 30.1322 47.0379C30.2243 47.6362 30.0861 48.199 29.7176 48.7261C28.9546 49.8112 28.0543 50.7088 27.0166 51.4187C25.979 52.1286 24.8558 52.6164 23.6468 52.8819C23.7131 54.0747 24.1702 55.1117 25.0179 55.993C25.8657 56.8741 26.8662 57.3147 28.0194 57.3147C29.2302 57.3147 30.2537 56.8795 31.0897 56.0091C31.9258 55.1387 32.3438 54.0732 32.3438 52.8126Z" fill="white"/>
</g>
</svg>
