<svg width="68" height="61" viewBox="0 0 68 61" fill="none" xmlns="http://www.w3.org/2000/svg">
<mask id="mask0_122_882" style="mask-type:alpha" maskUnits="userSpaceOnUse" x="0" y="0" width="68" height="61">
<rect width="67.0141" height="61" fill="#D9D9D9"/>
</mask>
<g mask="url(#mask0_122_882)">
<path d="M34.2212 38.3596C37.1387 38.3596 39.6347 37.5042 41.7092 35.7935C43.7837 34.0827 44.821 32.0022 44.821 29.5518C44.821 27.4142 44.0746 25.5984 42.5818 24.1044C41.089 22.6103 39.2579 21.8633 37.0886 21.8633C35.1878 21.8633 33.5661 22.4213 32.2237 23.5374C30.8813 24.6534 30.2101 26.0212 30.2101 27.6406C30.2101 28.3477 30.3667 29.0336 30.6799 29.6984C30.9931 30.3631 31.4397 30.9806 32.0197 31.5509L35.0857 28.8577C34.8566 28.7078 34.6848 28.5368 34.5702 28.3445C34.4557 28.1523 34.3984 27.9388 34.3984 27.7042C34.3984 27.173 34.6391 26.7127 35.1206 26.3234C35.6021 25.9339 36.2581 25.7392 37.0886 25.7392C38.091 25.7392 38.9394 26.105 39.6339 26.8366C40.3284 27.5681 40.6757 28.4944 40.6757 29.6153C40.6757 30.9774 40.0689 32.1464 38.8553 33.1223C37.6418 34.0983 36.1203 34.5863 34.291 34.5863C32.0858 34.5863 30.2046 33.7814 28.6474 32.1717C27.0902 30.562 26.3116 28.5677 26.3116 26.189C26.3116 24.9605 26.572 23.7809 27.0929 22.6502C27.6137 21.5195 28.3574 20.5142 29.324 19.6344L26.3117 16.9168C24.9478 18.1323 23.8971 19.5351 23.1596 21.1252C22.4222 22.7154 22.0535 24.3821 22.0535 26.1254C22.0535 29.511 23.2312 32.3964 25.5867 34.7817C27.9422 37.1669 30.8204 38.3596 34.2212 38.3596ZM18.1497 54.6458V44.401C15.4971 42.1982 13.4378 39.6736 11.9718 36.8272C10.5059 33.9809 9.77295 31.0165 9.77295 27.9339C9.77295 21.9382 12.0819 16.8427 16.6999 12.6473C21.3178 8.45193 26.9202 6.35425 33.507 6.35425C38.9304 6.35425 43.7802 7.82956 48.0562 10.7802C52.3323 13.7308 55.1093 17.5588 56.3873 22.2641L59.6413 33.9948C59.8561 34.7182 59.7111 35.3756 59.2064 35.967C58.7016 36.5584 58.0286 36.8541 57.1874 36.8541H51.6566V44.9679C51.6566 46.2355 51.1635 47.3181 50.1772 48.2158C49.191 49.1136 48.0016 49.5625 46.6091 49.5625H40.4876V54.6458H36.2993V45.75H46.6091C46.8597 45.75 47.0655 45.6767 47.2266 45.53C47.3877 45.3834 47.4683 45.196 47.4683 44.9679V33.0417H55.0074L52.3547 23.1927C51.2844 19.3216 48.9951 16.1828 45.4868 13.7764C41.9787 11.3699 37.9854 10.1667 33.507 10.1667C28.1087 10.1667 23.5015 11.8864 19.6854 15.3258C15.8693 18.7652 13.9613 22.9418 13.9613 27.8557C13.9613 30.3974 14.5313 32.8079 15.6715 35.0872C16.8117 37.3666 18.4289 39.3959 20.5231 41.175L22.338 42.7V54.6458H18.1497Z" fill="white"/>
</g>
</svg>
