<svg width="67" height="74" viewBox="0 0 67 74" fill="none" xmlns="http://www.w3.org/2000/svg">
<mask id="mask0_122_894" style="mask-type:alpha" maskUnits="userSpaceOnUse" x="0" y="0" width="67" height="74">
<rect width="67" height="74" fill="#D9D9D9"/>
</mask>
<g mask="url(#mask0_122_894)">
<path d="M12.5625 59.5319V52.6775C12.5625 51.1675 12.9338 49.7692 13.6765 48.4825C14.4191 47.1958 15.4114 46.2066 16.6533 45.5148C19.4128 44.0205 22.1964 42.8999 25.0042 42.1528C27.812 41.4057 30.6439 41.0322 33.4999 41.0322C34.5916 41.0322 35.6832 41.0929 36.7748 41.2145C37.8664 41.336 38.958 41.5183 40.0497 41.7614V46.4338C38.958 46.1492 37.8664 45.9485 36.7748 45.8319C35.6832 45.7153 34.5916 45.657 33.4999 45.657C30.9548 45.657 28.4323 45.994 25.9326 46.6679C23.4328 47.342 20.9804 48.3332 18.5753 49.6416C18.0133 49.9776 17.5687 50.4115 17.2412 50.9431C16.9137 51.4748 16.7499 52.0529 16.7499 52.6775V54.907H40.0497V59.5319H12.5625ZM33.4999 36.0512C30.813 36.0512 28.5128 34.9945 26.5994 32.8812C24.6859 30.7678 23.7292 28.2273 23.7292 25.2597C23.7292 22.292 24.6859 19.7514 26.5994 17.6381C28.5128 15.5248 30.813 14.4681 33.4999 14.4681C36.1869 14.4681 38.4871 15.5248 40.4005 17.6381C42.314 19.7514 43.2707 22.292 43.2707 25.2597C43.2707 28.2273 42.314 30.7678 40.4005 32.8812C38.4871 34.9945 36.1869 36.0512 33.4999 36.0512ZM33.4999 31.4263C35.0353 31.4263 36.3498 30.8225 37.4432 29.6149C38.5366 28.4072 39.0833 26.9555 39.0833 25.2597C39.0833 23.5638 38.5366 22.1121 37.4432 20.9045C36.3498 19.6968 35.0353 19.093 33.4999 19.093C31.9645 19.093 30.6501 19.6968 29.5567 20.9045C28.4633 22.1121 27.9166 23.5638 27.9166 25.2597C27.9166 26.9555 28.4633 28.4072 29.5567 29.6149C30.6501 30.8225 31.9645 31.4263 33.4999 31.4263ZM50.9479 71.094V57.516H46.1699V40.8542H60.2891L54.9474 52.5946H60.2086L50.9479 71.094Z" fill="white"/>
</g>
</svg>
