<svg width="62" height="62" viewBox="0 0 62 62" fill="none" xmlns="http://www.w3.org/2000/svg">
<mask id="mask0_122_900" style="mask-type:alpha" maskUnits="userSpaceOnUse" x="0" y="0" width="62" height="62">
<rect width="61.4731" height="61.4731" fill="#D9D9D9"/>
</mask>
<g mask="url(#mask0_122_900)">
<path d="M30.7366 44.036C33.4096 44.036 35.8528 43.2881 38.0661 41.7923C40.2794 40.2966 41.9114 38.3189 42.9622 35.8594H18.511C19.5618 38.3189 21.1939 40.2966 23.4072 41.7923C25.6205 43.2881 28.0636 44.036 30.7366 44.036ZM19.9788 27.6334L22.7963 24.8947L25.535 27.6334L27.6826 25.4858L22.7963 20.5207L17.8312 25.4858L19.9788 27.6334ZM35.9382 27.6334L38.6769 24.8947L41.4944 27.6334L43.642 25.4858L38.6769 20.5207L33.7906 25.4858L35.9382 27.6334ZM30.7409 55.0696C27.3754 55.0696 24.212 54.431 21.2507 53.1537C18.2894 51.8765 15.7135 50.143 13.5229 47.9535C11.3323 45.7639 9.59814 43.1891 8.32031 40.2291C7.04248 37.2691 6.40356 34.1064 6.40356 30.7409C6.40356 27.3754 7.0422 24.212 8.31948 21.2507C9.59675 18.2894 11.3302 15.7134 13.5197 13.5229C15.7093 11.3323 18.2841 9.59811 21.2441 8.32028C24.2041 7.04245 27.3668 6.40353 30.7323 6.40353C34.0978 6.40353 37.2612 7.04217 40.2225 8.31945C43.1838 9.59672 45.7598 11.3301 47.9503 13.5197C50.1409 15.7093 51.8751 18.2841 53.1529 21.2441C54.4308 24.2041 55.0697 27.3668 55.0697 30.7323C55.0697 34.0978 54.431 37.2612 53.1538 40.2225C51.8765 43.1838 50.1431 45.7598 47.9535 47.9503C45.7639 50.1409 43.1891 51.8751 40.2291 53.1529C37.2691 54.4307 34.1064 55.0696 30.7409 55.0696ZM30.7366 51.2276C36.457 51.2276 41.3023 49.2426 45.2725 45.2724C49.2426 41.3023 51.2277 36.457 51.2277 30.7366C51.2277 25.0162 49.2426 20.1709 45.2725 16.2008C41.3023 12.2306 36.457 10.2455 30.7366 10.2455C25.0162 10.2455 20.1709 12.2306 16.2008 16.2008C12.2306 20.1709 10.2456 25.0162 10.2456 30.7366C10.2456 36.457 12.2306 41.3023 16.2008 45.2724C20.1709 49.2426 25.0162 51.2276 30.7366 51.2276Z" fill="white"/>
</g>
</svg>
